# Blender 5.0.0
# www.blender.org
mtllib abeja.mtl
o Cube
v -0.034673 0.325542 0.686144
v 0.020424 0.612354 0.952661
v -0.512884 0.913504 -0.337577
v -0.368676 1.391691 0.572348
v 0.352380 0.326210 0.605411
v 0.407476 0.613022 0.871928
v 0.471939 0.915205 -0.542996
v 0.737557 1.433457 0.456796
v -0.487426 0.451635 0.120722
v -0.347239 1.181404 0.798853
v 0.637584 1.183105 0.593433
v 0.497397 0.453336 -0.084697
v -0.212499 0.296214 0.533211
v -0.117809 0.789134 0.991252
v 0.547386 0.790283 0.852502
v 0.452697 0.297363 0.394461
v 0.193283 0.205135 0.996172
v 0.203654 0.259120 1.046337
v 0.276507 0.259246 1.031141
v 0.266136 0.205260 0.980976
v -0.255808 1.810173 -0.195889
v -0.333499 1.405738 -0.571706
v 0.212285 1.406681 -0.685549
v 0.289976 1.811115 -0.309732
v -0.486681 2.252062 -0.330208
v -0.619509 1.560607 -0.972735
v 0.313609 1.562219 -1.167369
v 0.446436 2.253673 -0.524842
v -0.302012 2.473580 -1.095791
v -0.371158 2.113632 -1.430269
v 0.114592 2.114471 -1.531589
v 0.183737 2.474419 -1.197111
v -0.838087 1.850530 1.208397
v 1.196951 2.095828 0.664613
v -0.725219 2.269011 0.440160
v 0.749370 2.473486 -0.101915
vn -0.9896 0.0628 0.1294
vn 0.8691 0.2823 -0.4062
vn 0.9778 -0.1849 -0.0989
vn 0.9474 -0.2957 0.1223
vn -0.1445 -0.7010 -0.6984
vn 0.1086 0.6039 0.7896
vn -0.8453 -0.2675 0.4626
vn 0.9776 -0.2092 0.0231
vn -0.0639 -0.9472 -0.3143
vn 0.1743 0.5139 0.8399
vn -0.4972 -0.5375 0.6812
vn 0.7336 -0.5328 0.4217
vn 0.0332 -0.9880 0.1509
vn 0.2040 -0.0539 0.9775
vn 0.1493 -0.6883 0.7099
vn -0.0650 -0.9454 -0.3194
vn -0.8208 -0.2962 0.4885
vn 0.1912 0.3431 0.9196
vn 0.1887 0.3745 0.9078
vn -0.1895 -0.3646 -0.9117
vn 0.0399 0.8905 0.4532
vn -0.9598 0.2793 -0.0261
vn -0.1648 -0.5837 -0.7950
vn -0.8288 -0.2871 0.4803
vn 0.9527 -0.2840 0.1087
vn -0.0649 -0.9456 -0.3189
vn -0.1493 0.6883 -0.7099
vn 0.0590 0.9550 0.2906
vn -0.9411 0.3087 -0.1377
vn 0.9374 0.1228 -0.3260
vn -0.8516 -0.3976 -0.3417
vn -0.7376 0.3260 0.5913
vt 0.375000 0.000000
vt 0.625000 0.000000
vt 0.625000 0.250000
vt 0.375000 0.250000
vt 0.625000 0.500000
vt 0.375000 0.500000
vt 0.625000 0.750000
vt 0.375000 0.750000
vt 0.450873 0.825873
vt 0.549127 0.825873
vt 0.125000 0.500000
vt 0.125000 0.750000
vt 0.875000 0.500000
vt 0.875000 0.750000
vt 0.415569 0.959431
vt 0.584431 0.959431
vt 0.625000 1.000000
vt 0.375000 1.000000
vt 0.584431 0.790569
vt 0.415569 0.790569
vt 0.450873 0.924127
vt 0.549127 0.924127
s 0
usemtl Material.001
f 9/1/1 10/2/1 4/3/1 3/4/1
f 8/5/2 7/6/2 23/6/2 24/5/2
f 7/6/3 8/5/3 11/7/3 12/8/3
f 5/9/4 6/10/4 19/10/4 20/9/4
f 3/11/5 7/6/5 12/8/5 9/12/5
f 8/5/6 4/13/6 10/14/6 11/7/6
f 13/15/7 14/16/7 10/17/7 9/18/7
f 15/19/8 16/20/8 12/8/8 11/7/8
f 16/20/9 13/15/9 9/18/9 12/8/9
f 14/16/10 15/19/10 11/7/10 10/17/10
f 1/21/11 2/22/11 14/16/11 13/15/11
f 6/10/12 5/9/12 16/20/12 15/19/12
f 5/9/13 1/21/13 13/15/13 16/20/13
f 2/22/14 6/10/14 15/19/14 14/16/14
f 20/9/15 19/10/15 18/22/15 17/21/15
f 1/21/16 5/9/16 20/9/16 17/21/16
f 2/22/17 1/21/17 17/21/17 18/22/17
f 6/10/18 2/22/18 18/22/18 19/10/18
f 21/13/19 24/5/19 28/5/19 25/13/19
f 7/6/20 3/11/20 22/11/20 23/6/20
f 4/13/21 8/5/21 24/5/21 21/13/21
f 3/4/22 4/3/22 21/3/22 22/4/22
f 27/6/23 26/11/23 30/11/23 31/6/23
f 22/4/24 21/3/24 25/3/24 26/4/24
f 24/5/25 23/6/25 27/6/25 28/5/25
f 23/6/26 22/11/26 26/11/26 27/6/26
f 30/4/27 29/3/27 32/5/27 31/6/27
f 25/13/28 28/5/28 32/5/28 29/13/28
f 26/4/29 25/3/29 29/3/29 30/4/29
f 28/5/30 27/6/30 31/6/30 32/5/30
f 21/13/31 4/13/31 33/13/31 35/13/31
f 24/5/32 8/5/32 34/5/32 36/5/32
